<svg xmlns="http://www.w3.org/2000/svg" width="130.688" height="44.28" viewBox="0 0 130.688 44.28">
  <defs>
    <style>
      .cls-1 {
        fill: #fff;
        fill-rule: evenodd;
      }
    </style>
  </defs>
  <path id="形状_538" data-name="形状 538" class="cls-1" d="M443.648,1897.23h1.769a2.316,2.316,0,0,0,1.561-.44,1.628,1.628,0,0,0,.51-1.31,1.783,1.783,0,0,0-.516-1.35,2.061,2.061,0,0,0-1.515-.5h-1.809v3.6Zm0,1.92v4.95h-2.491v-12.39h4.3a5.189,5.189,0,0,1,3.325.97,3.252,3.252,0,0,1,1.2,2.69,2.731,2.731,0,0,1-.507,1.65,3.525,3.525,0,0,1-1.483,1.11,2.724,2.724,0,0,1,1.585,1.08,3.455,3.455,0,0,1,.481,1.88v0.9a4.424,4.424,0,0,0,.142,1.09,1.479,1.479,0,0,0,.481.84v0.18h-2.57a1.426,1.426,0,0,1-.439-0.91,7.88,7.88,0,0,1-.1-1.21v-0.88a1.773,1.773,0,0,0-1.946-1.95h-1.981Zm-6.166-2.37a3.746,3.746,0,0,0-.725-2.38,2.4,2.4,0,0,0-2-.93,2.335,2.335,0,0,0-1.97.93,3.829,3.829,0,0,0-.7,2.38v2.24a3.853,3.853,0,0,0,.708,2.4,2.366,2.366,0,0,0,1.981.92,2.4,2.4,0,0,0,2-.92,3.819,3.819,0,0,0,.716-2.4v-2.24Zm2.485,2.24a5.192,5.192,0,0,1-1.442,3.77,5.459,5.459,0,0,1-7.5,0,5.231,5.231,0,0,1-1.433-3.77v-2.23a5.214,5.214,0,0,1,1.431-3.76,4.9,4.9,0,0,1,3.726-1.49,5,5,0,0,1,3.764,1.49,5.171,5.171,0,0,1,1.45,3.76v2.23Zm-10.4-5.39h-3.552v10.47h-2.491v-10.47h-3.5v-1.92h9.541v1.92Zm-9.432,6.37,0.017,0.05a3.869,3.869,0,0,1-1.212,3.1,4.954,4.954,0,0,1-3.44,1.13,4.757,4.757,0,0,1-3.61-1.44,5.115,5.115,0,0,1-1.375-3.7v-2.46a5.207,5.207,0,0,1,1.34-3.7,4.548,4.548,0,0,1,3.517-1.44,5.242,5.242,0,0,1,3.551,1.1,3.816,3.816,0,0,1,1.247,3.11l-0.018.06h-2.423a2.44,2.44,0,0,0-.577-1.78,2.406,2.406,0,0,0-1.78-.58,2.006,2.006,0,0,0-1.745.9,3.917,3.917,0,0,0-.627,2.31v2.48a3.83,3.83,0,0,0,.662,2.33,2.147,2.147,0,0,0,1.838.9,2.224,2.224,0,0,0,1.669-.58,2.539,2.539,0,0,0,.551-1.79h2.415Zm-10.7-8.29v8.11a4.067,4.067,0,0,1-1.39,3.27,5.375,5.375,0,0,1-3.609,1.19,5.31,5.31,0,0,1-3.589-1.19,4.077,4.077,0,0,1-1.378-3.27v-8.11h2.5v8.11a2.56,2.56,0,0,0,.664,1.9,2.49,2.49,0,0,0,1.8.65,2.3,2.3,0,0,0,2.5-2.55v-8.11h2.5Zm-18.14,1.92v8.56h1.845a2.437,2.437,0,0,0,1.981-.91,3.59,3.59,0,0,0,.748-2.35v-2.06a3.534,3.534,0,0,0-.748-2.33,2.437,2.437,0,0,0-1.981-.91H391.3Zm-2.49,10.47v-12.39h4.335a5.168,5.168,0,0,1,3.755,1.45,5.007,5.007,0,0,1,1.477,3.73v2.04a4.969,4.969,0,0,1-1.477,3.72,5.168,5.168,0,0,1-3.755,1.45h-4.335Zm-1.5,0h-2.494l-5.008-8.36-0.052.01v8.35h-2.491v-12.39h2.491l5.011,8.35,0.049-.01v-8.34H387.3v12.39Zm-11.73,0h-2.494v-12.39h2.494v12.39Zm47.056-24.5h0.079l2.638-13.45h4.111l-4.642,19.82h-3.7l-3.664-13.05h-0.079l-3.645,13.05h-3.7l-4.643-19.82h4.107l2.652,13.44h0.079l3.58-13.44h3.221Zm-19.193-2.34h-7.374v5.66h8.768v3.05H392.076v-19.82H404.8v3.07h-8.74v4.98h7.374v3.06Zm-13.767,8.71h-3.99l-8.013-13.36-0.084.01v13.35H373.6v-19.82h3.985l8.018,13.35,0.079-.01v-13.34h3.99v19.82Zm-29.2-24.03H324.5a4.475,4.475,0,0,0-4.5,4.43v35.43a4.475,4.475,0,0,0,4.5,4.43h35.973a4.475,4.475,0,0,0,4.5-4.43v-35.43A4.475,4.475,0,0,0,360.468,1861.94Zm-5.448,33.62a7.626,7.626,0,0,1-4.288,1.9,3.879,3.879,0,0,1-3.652-2.57,12.67,12.67,0,0,1-1.086-3.79q-3.215,3.105-5.088,4.62-2.271,1.86-3.715,1.86c-1.637,0-2.455-1.08-2.455-3.23a6.206,6.206,0,0,1,.3-1.88,12.529,12.529,0,0,1,.828-1.92c1.184-2.29,5.129-6.5,4.083-7.1-1.141-.66-6.111,5.25-7.132,6.49-0.778.97-1.607,2.04-2.5,3.24a24.2,24.2,0,0,1-1.954,2.38c-2.426,2.42-4.485-1.02-4.535-2.94-0.12-4.6,2.566-11.95,6.883-11.96a3.021,3.021,0,0,1,1.545.32,1.08,1.08,0,0,1,.583,1.01,1.248,1.248,0,0,1-.174.63,3.722,3.722,0,0,1-.409.6c-0.143.18-.461,0.53-0.942,1.05-0.022.02-3.967,4.67-3.39,6.02a0.645,0.645,0,0,0,.734.37c0.628-.13,4.175-4.8,4.678-5.38,2.494-2.83,5.293-7.1,8.373-9.12a3.1,3.1,0,0,1,3.21.21c3.318,3.31-5.147,11.53-5.147,14.12,0,0.86.623,0.95,1.319,0.95,2.307,0,5.216-5.62,6.83-8.29q4.251-6.585,7.786-6.59c1.228,0,1.832.47,1.832,1.4,0,3.48-4.743,6.94-6.692,9.37a3.508,3.508,0,0,0-.8,2.25,2.294,2.294,0,0,0,.808,1.79c2.666,2.36,7.619-1.16,7.631-.9C358.538,1891.61,357.248,1893.88,355.02,1895.56Zm6.027-22.7a3.436,3.436,0,0,1-2.64,1.55,2.223,2.223,0,0,1-1.422-.57,1.8,1.8,0,0,1-.676-1.43,4.985,4.985,0,0,1,1.259-2.94,3.454,3.454,0,0,1,2.609-1.61,1.987,1.987,0,0,1,2.1,2.15A4.78,4.78,0,0,1,361.047,1872.86Z" transform="translate(-320 -1861.94)"/>
</svg>
