<svg xmlns="http://www.w3.org/2000/svg" xmlns:xlink="http://www.w3.org/1999/xlink" width="20px" height="20px" viewBox="0 0 20 20">
<path fill-rule="evenodd"  fill="rgb(255, 255, 255)"
 d="M12.128,19.768 C12.046,19.919 12.000,20.000 12.000,20.000 L11.000,20.000 C11.000,20.000 11.012,19.978 11.030,19.947 C10.691,19.982 10.348,20.000 10.000,20.000 C9.652,20.000 9.308,19.982 8.970,19.947 C8.987,19.978 9.000,20.000 9.000,20.000 L8.000,20.000 C8.000,20.000 7.953,19.919 7.872,19.768 C3.372,18.792 -0.000,14.792 -0.000,10.000 C-0.000,4.477 4.477,-0.000 10.000,-0.000 C15.523,-0.000 20.000,4.477 20.000,10.000 C20.000,14.792 16.628,18.792 12.128,19.768 ZM18.053,14.000 L14.421,14.000 C13.939,15.823 13.255,17.461 12.734,18.563 C15.061,17.818 16.978,16.159 18.053,14.000 ZM8.394,18.839 C8.917,18.934 9.450,19.000 10.000,19.000 C10.550,19.000 11.083,18.934 11.606,18.839 C12.139,17.749 12.904,15.991 13.427,14.000 L6.573,14.000 C7.096,15.991 7.861,17.749 8.394,18.839 ZM14.000,10.000 C14.000,8.969 13.848,7.957 13.619,7.000 L6.381,7.000 C6.152,7.957 6.000,8.969 6.000,10.000 C6.000,11.003 6.133,12.018 6.337,13.000 L13.662,13.000 C13.867,12.018 14.000,11.003 14.000,10.000 ZM7.266,18.563 C6.745,17.461 6.060,15.823 5.579,14.000 L1.946,14.000 C3.021,16.159 4.939,17.818 7.266,18.563 ZM1.000,10.000 C1.000,11.053 1.190,12.060 1.523,13.000 L5.342,13.000 C5.135,12.015 5.000,10.999 5.000,10.000 C5.000,8.965 5.150,7.953 5.376,7.000 L1.523,7.000 C1.190,7.939 1.000,8.946 1.000,10.000 ZM1.946,6.000 L5.645,6.000 C6.338,3.732 7.389,1.950 7.811,1.288 C5.239,1.934 3.104,3.674 1.946,6.000 ZM8.949,1.075 C8.694,1.461 7.441,3.430 6.652,6.000 L13.348,6.000 C12.558,3.430 11.306,1.461 11.050,1.075 C10.704,1.035 10.357,1.000 10.000,1.000 C9.643,1.000 9.295,1.035 8.949,1.075 ZM12.188,1.288 C12.611,1.950 13.662,3.732 14.355,6.000 L18.053,6.000 C16.896,3.674 14.760,1.934 12.188,1.288 ZM14.624,7.000 C14.850,7.953 15.000,8.965 15.000,10.000 C15.000,10.999 14.865,12.015 14.658,13.000 L18.477,13.000 C18.809,12.060 19.000,11.053 19.000,10.000 C19.000,8.946 18.809,7.939 18.477,7.000 L14.624,7.000 Z"/>
</svg>