<svg  xmlns="http://www.w3.org/2000/svg" xmlns:xlink="http://www.w3.org/1999/xlink" width="18px" height="19px" viewBox="0 0 18 19">
<path fill-rule="evenodd"  fill="rgb(255, 255, 255)"
 d="M13.945,14.274 L17.985,18.289 L17.285,18.985 L13.187,14.911 C11.809,15.941 10.105,16.559 8.253,16.559 C3.686,16.559 -0.014,12.853 -0.014,8.284 C-0.014,3.712 3.686,0.009 8.253,0.009 C12.818,0.009 16.519,3.712 16.519,8.284 C16.519,10.643 15.528,12.766 13.945,14.274 ZM8.276,1.017 C4.255,1.017 0.995,4.280 0.995,8.306 C0.995,12.332 4.255,15.594 8.276,15.594 C9.853,15.594 11.304,15.079 12.497,14.225 L12.386,14.115 L13.086,13.420 L13.261,13.594 C14.667,12.265 15.557,10.395 15.557,8.306 C15.557,4.280 12.295,1.017 8.276,1.017 Z"/>
</svg>